<svg xmlns="http://www.w3.org/2000/svg" viewBox="0 0 140 28.55">
  <defs>
    <style>
      .cls-1 {
        fill: #1d1d1d;
      }

      .cls-2 {
        fill: #a60a3d;
      }
    </style>
  </defs>
  <g id="Layer_2" data-name="Layer 2">
    <g id="Layer_1-2" data-name="Layer 1">
      <g>
        <g>
          <path class="cls-1" d="M34.67,9a5.29,5.29,0,0,1,4,1.3,6,6,0,0,1,1.56,3.54l1.2,8.83H38.15l-.37-2.94a5.89,5.89,0,0,1-2.12,2.35,5.35,5.35,0,0,1-2.94.86,4.78,4.78,0,0,1-1.82-.31,3.76,3.76,0,0,1-1.32-.83,3.3,3.3,0,0,1-.81-1.24A4.54,4.54,0,0,1,28.5,19,3.4,3.4,0,0,1,29,17.23,3.78,3.78,0,0,1,30.15,16a5.54,5.54,0,0,1,1.7-.71,8.8,8.8,0,0,1,2-.23,7.53,7.53,0,0,1,1.8.23,7.11,7.11,0,0,1,1.62.61L37,14.11a6,6,0,0,0-.89-2.66,2.28,2.28,0,0,0-2-.89,2.81,2.81,0,0,0-1,.17,1.73,1.73,0,0,0-.64.46,1.92,1.92,0,0,0-.37.66,7.1,7.1,0,0,0-.22.79c-.21,1-.73,1.52-1.55,1.52a1.75,1.75,0,0,1-1.1-.38,1.4,1.4,0,0,1-.48-1.16,2.4,2.4,0,0,1,.48-1.42A4.46,4.46,0,0,1,30.55,10a7.34,7.34,0,0,1,1.89-.78A8.63,8.63,0,0,1,34.67,9Zm2.73,8a6.9,6.9,0,0,0-1.3-.46,5.24,5.24,0,0,0-1.33-.18,5.06,5.06,0,0,0-1.12.12,2.88,2.88,0,0,0-.95.39,1.81,1.81,0,0,0-.66.71,2.21,2.21,0,0,0-.24,1.08,2.15,2.15,0,0,0,.6,1.59,2.49,2.49,0,0,0,1.81.6,3.1,3.1,0,0,0,1.93-.7,4.84,4.84,0,0,0,1.42-1.86Z"/>
          <path class="cls-1" d="M50.16,22.92a7,7,0,0,1-2.6-.46,5.82,5.82,0,0,1-2-1.29,6,6,0,0,1-1.34-2,7.08,7.08,0,0,1-.48-2.66,7.71,7.71,0,0,1,.53-2.88,7.6,7.6,0,0,1,1.49-2.39A6.9,6.9,0,0,1,48,9.58,6.79,6.79,0,0,1,50.85,9a6,6,0,0,1,2,.31,5.09,5.09,0,0,1,1.54.86,4.17,4.17,0,0,1,1,1.22,3,3,0,0,1,.36,1.4,1.92,1.92,0,0,1-.48,1.52,1.68,1.68,0,0,1-1.1.4,1.58,1.58,0,0,1-1.07-.38,1.53,1.53,0,0,1-.46-1.25,3.35,3.35,0,0,0-.12-.89,2.21,2.21,0,0,0-.39-.8,1.85,1.85,0,0,0-.72-.59,2.51,2.51,0,0,0-1.12-.22,2.74,2.74,0,0,0-2.45,1.28A6.36,6.36,0,0,0,47,15.39a6.78,6.78,0,0,0,.33,2.2,4.34,4.34,0,0,0,.91,1.64,3.82,3.82,0,0,0,1.38,1,4.16,4.16,0,0,0,1.69.35,5.53,5.53,0,0,0,2.26-.42,4,4,0,0,0,1.45-1l.64,1.09a3.27,3.27,0,0,1-.82,1,6.09,6.09,0,0,1-1.27.84,8,8,0,0,1-3.41.79Z"/>
          <path class="cls-1" d="M64.56,9a5.32,5.32,0,0,1,4,1.3,6,6,0,0,1,1.55,3.54l1.21,8.84H68.05l-.38-2.94a6.08,6.08,0,0,1-2.11,2.35,5.39,5.39,0,0,1-3,.85,5,5,0,0,1-1.82-.3,4,4,0,0,1-1.32-.83,3.32,3.32,0,0,1-.8-1.24A4.32,4.32,0,0,1,58.4,19a3.36,3.36,0,0,1,.45-1.78A3.91,3.91,0,0,1,60.05,16a5.31,5.31,0,0,1,1.7-.71,8.65,8.65,0,0,1,2-.23,7.68,7.68,0,0,1,1.81.23,7,7,0,0,1,1.62.6l-.24-1.79a6,6,0,0,0-.9-2.65,2.26,2.26,0,0,0-2-.9,2.59,2.59,0,0,0-1,.18,2,2,0,0,0-.65.45,2.07,2.07,0,0,0-.37.67,7.1,7.1,0,0,0-.22.79c-.21,1-.73,1.52-1.55,1.52a1.72,1.72,0,0,1-1.1-.39,1.38,1.38,0,0,1-.48-1.16,2.35,2.35,0,0,1,.48-1.41A4.62,4.62,0,0,1,60.44,10a7.7,7.7,0,0,1,1.89-.77A8.27,8.27,0,0,1,64.56,9Zm2.73,8A6.9,6.9,0,0,0,66,16.5a5.13,5.13,0,0,0-2.45-.06,2.88,2.88,0,0,0-.95.39,1.81,1.81,0,0,0-.66.71,2.21,2.21,0,0,0-.24,1.08,2.12,2.12,0,0,0,.61,1.59,2.44,2.44,0,0,0,1.8.6,3.1,3.1,0,0,0,1.93-.7,4.74,4.74,0,0,0,1.42-1.86Z"/>
          <path class="cls-1" d="M73.67,16a8.24,8.24,0,0,1,.46-2.83,6.5,6.5,0,0,1,1.27-2.21,5.73,5.73,0,0,1,1.94-1.43A6.06,6.06,0,0,1,79.81,9a5.74,5.74,0,0,1,2.42.52A5.61,5.61,0,0,1,84.15,11V4l3.24-.8V22.65H85l-.66-1.87a5.66,5.66,0,0,1-2,1.58,5.74,5.74,0,0,1-2.52.56,6,6,0,0,1-2.46-.5A5.86,5.86,0,0,1,75.4,21a6.84,6.84,0,0,1-1.27-2.21A8.28,8.28,0,0,1,73.67,16Zm3.3-.51a7.16,7.16,0,0,0,.35,2.27,5.63,5.63,0,0,0,.94,1.79,4.24,4.24,0,0,0,1.38,1.16,3.47,3.47,0,0,0,1.67.41A3.1,3.1,0,0,0,83,20.63a3.49,3.49,0,0,0,1.16-1.22V12.8a4.29,4.29,0,0,0-1.53-1.47,4.05,4.05,0,0,0-2-.5,3.18,3.18,0,0,0-2.73,1.22A5.57,5.57,0,0,0,77,15.44Z"/>
          <path class="cls-1" d="M102.66,20.25a3.27,3.27,0,0,1-.82,1,6.09,6.09,0,0,1-1.27.84,7.75,7.75,0,0,1-1.6.57,7.18,7.18,0,0,1-1.81.22,7.06,7.06,0,0,1-2.73-.52A6.14,6.14,0,0,1,92.33,21,6.51,6.51,0,0,1,91,18.75a8.1,8.1,0,0,1-.46-2.8,7.27,7.27,0,0,1,.53-2.8,6.44,6.44,0,0,1,1.51-2.21,7,7,0,0,1,2.3-1.44,8.07,8.07,0,0,1,3-.52,6.93,6.93,0,0,1,2.31.35,4.77,4.77,0,0,1,1.61.9,3.85,3.85,0,0,1,.94,1.26,3.47,3.47,0,0,1,.31,1.36,2.75,2.75,0,0,1-.54,1.69,4.24,4.24,0,0,1-1.41,1.19,7.68,7.68,0,0,1-1.94.7,9.88,9.88,0,0,1-2.17.24,7.4,7.4,0,0,1-1.63-.2A7.61,7.61,0,0,1,93.81,16a5.42,5.42,0,0,0,1.34,3.37,4.15,4.15,0,0,0,3.19,1.27,5.57,5.57,0,0,0,2.24-.41,3.88,3.88,0,0,0,1.43-1Zm-8.88-4.94a20.9,20.9,0,0,0,2.24,0A7.94,7.94,0,0,0,97.91,15a2.94,2.94,0,0,0,1.32-.76,1.94,1.94,0,0,0,.48-1.39,2.67,2.67,0,0,0-.14-.82,2,2,0,0,0-.42-.74,2.1,2.1,0,0,0-.76-.54,2.93,2.93,0,0,0-1.11-.2,2.69,2.69,0,0,0-1.46.4A3.4,3.4,0,0,0,94.72,12,5.56,5.56,0,0,0,94,13.54,6.52,6.52,0,0,0,93.78,15.31Z"/>
          <path class="cls-1" d="M125.26,22.65H122l-.91-8.38a5.54,5.54,0,0,0-.62-2.29,1.45,1.45,0,0,0-1.31-.76,2.13,2.13,0,0,0-1.25.39,3.32,3.32,0,0,0-1,1.06v10h-3.24V14.51a6,6,0,0,0-.42-2.54,1.42,1.42,0,0,0-1.36-.86,3.17,3.17,0,0,0-1.43.32,3.4,3.4,0,0,0-1.08.88V22.65h-3.25V9.3h2.44l.72,2A5,5,0,0,1,111,9.61a4.76,4.76,0,0,1,2.43-.6,3.15,3.15,0,0,1,2.18.69,3.75,3.75,0,0,1,1.06,2,5.17,5.17,0,0,1,1.73-2A4.39,4.39,0,0,1,120.89,9a3.1,3.1,0,0,1,1.53.33,2.72,2.72,0,0,1,1,1,5,5,0,0,1,.59,1.52,19.25,19.25,0,0,1,.31,2Z"/>
          <path class="cls-1" d="M140,9.3l-3.94,12.28A26.77,26.77,0,0,1,135,24.35a10.1,10.1,0,0,1-1.35,2.2A5.67,5.67,0,0,1,131.88,28a5,5,0,0,1-2.38.53,4.33,4.33,0,0,1-1.56-.27,4.22,4.22,0,0,1-1.2-.68,2.76,2.76,0,0,1-.78-1,2.52,2.52,0,0,1-.27-1.11,1.51,1.51,0,0,1,.53-1.25,2,2,0,0,1,1.24-.43,1.82,1.82,0,0,1,1.14.35,1.55,1.55,0,0,1,.55,1,3.17,3.17,0,0,0,.4,1.12,1.14,1.14,0,0,0,1,.43,3.21,3.21,0,0,0,.81-.1,2.83,2.83,0,0,0,.79-.31,2.69,2.69,0,0,0,.68-.63,3.29,3.29,0,0,0,.5-1l-7-15.36H130l5,11.88L137.56,9.3Z"/>
        </g>
        <path class="cls-2" d="M20.76,10.89a4.61,4.61,0,0,0-1-.88c-.16-.11-.31-.21-.47-.3a5.63,5.63,0,0,0-1.47-.56A5.79,5.79,0,0,0,16.71,9a10,10,0,0,0-3.83.61,10.35,10.35,0,0,1,1.68-3.06,10.48,10.48,0,0,1,3.69-2.93,3.67,3.67,0,0,0-.33-1.25,3.53,3.53,0,0,0-.72-1A12.3,12.3,0,0,0,13,4.53h0a9.65,9.65,0,0,1,1.42-2.63A3.92,3.92,0,0,0,13.55,1,3.83,3.83,0,0,0,12.38.38a12.31,12.31,0,0,0-1.83,3.43c-.05.17-.11.35-.16.53a10,10,0,0,1,.26-1.55,9.17,9.17,0,0,1,.63-1.72,4,4,0,0,0-1-.67A3.88,3.88,0,0,0,9,0a12.31,12.31,0,0,0-.8,2.25,11.94,11.94,0,0,0-.37,3A11.77,11.77,0,0,0,9,10.18a6.62,6.62,0,0,0-1.35-.64A5.68,5.68,0,0,0,4.32,9.4a5.81,5.81,0,0,0-3.14,2.26,6.33,6.33,0,0,0-1,4.88A6.55,6.55,0,0,0,2.35,20.1c2.39,1.93,4.56.72,6.58,2.22.86.63,1.82,1.84,2.17,4.41a.29.29,0,0,0,.57,0,18.08,18.08,0,0,0,.65-4,9.56,9.56,0,0,0,1.79.18c.21,0,.43,0,.66,0A7.66,7.66,0,0,0,19.65,21c.18-.17.35-.35.51-.53l.14-.17a7.81,7.81,0,0,0,1.1-1.83,1.8,1.8,0,0,0,.08-.21C22.5,15.65,22.16,12.6,20.76,10.89Z"/>
      </g>
    </g>
  </g>
</svg>
